# xmcd
#
# Track frame offsets:
#	150
#	18615
#	34212
#	52895
#	69952
#	87952
#	103695
#	122135
#	144772
#	164962
#	183515
#	198367
#	220372
#
# Disc length: 3142 seconds
#
# Revision: 1
# Processed by: cddbd v1.5.1PL0 Copyright (c) Steve Scherf et al.
# Submitted via: CDex 1.50Beta5
#
DISCID=bb0c440d
DTITLE=本田美奈子 - Look Over My Shoulder
DYEAR=1988
DGENRE=Pop
TTITLE0=殺意のバカンス
TTITLE1=好きと言いなさい
TTITLE2=青い週末
TTITLE3=Temptation
TTITLE4=1986年のマリリン
TTITLE5=Sosotte
TTITLE6=Help
TTITLE7=CROSS
TTITLE8=Oneway Generation
TTITLE9=CRAZY NIGHTS
TTITLE10=HEART BREAK
TTITLE11=孤独なハリケーン
TTITLE12=悲しみSWING
EXTD=
EXTT0=
EXTT1=
EXTT2=
EXTT3=
EXTT4=
EXTT5=
EXTT6=
EXTT7=
EXTT8=
EXTT9=
EXTT10=
EXTT11=
EXTT12=
PLAYORDER=
